HIERARCHY
ROOT Hips
{
  OFFSET 5.84602e-005 68.8428 3.50346
  CHANNELS 6 Xposition Yposition Zposition Zrotation Xrotation Yrotation
  JOINT Spine
  {
    OFFSET 0 8.597 -4.6522
    CHANNELS 3 Zrotation Xrotation Yrotation
    JOINT Spine1
    {
      OFFSET 0 7.8454 0.4098
      CHANNELS 3 Zrotation Xrotation Yrotation
      JOINT Spine2
      {
        OFFSET 0 9.7078 -2.1609
        CHANNELS 3 Zrotation Xrotation Yrotation
        JOINT Neck
        {
          OFFSET 0 21.8761 -0.4549
          CHANNELS 3 Zrotation Xrotation Yrotation
          JOINT Head
          {
            OFFSET 0 12.3537 3.3602
            CHANNELS 3 Zrotation Xrotation Yrotation
            End Site
            {
              OFFSET 0.0001 18.9506 0.5657
            }
          }
        }
        JOINT LeftShoulder
        {
          OFFSET 2.2086 21.1115 7.2329
          CHANNELS 3 Zrotation Xrotation Yrotation
          JOINT LeftArm
          {
            OFFSET 13.1193 3.0282 -4.8998
            CHANNELS 3 Zrotation Xrotation Yrotation
            JOINT LeftForeArm
            {
              OFFSET 27.4081 -0.0973053 -0.2375
              CHANNELS 3 Zrotation Xrotation Yrotation
              JOINT LeftHand
              {
                OFFSET 22.8641 0.0662994 -0.1369
                CHANNELS 3 Zrotation Xrotation Yrotation
                JOINT LeftHandIndex1
                {
                  OFFSET 8.8614 0.775009 2.4612
                  CHANNELS 3 Zrotation Xrotation Yrotation
                  JOINT LeftHandIndex2
                  {
                    OFFSET 3.3146 -0.808304 0.5841
                    CHANNELS 3 Zrotation Xrotation Yrotation
                    JOINT LeftHandIndex3
                    {
                      OFFSET 2.2628 -0.552002 0.3989
                      CHANNELS 3 Zrotation Xrotation Yrotation
                      End Site
                      {
                        OFFSET 1.6102 -0.4807 0.2612
                      }
                    }
                  }
                }
                JOINT LeftHandMiddle1
                {
                  OFFSET 8.9937 0.895004 0.2143
                  CHANNELS 3 Zrotation Xrotation Yrotation
                  JOINT LeftHandMiddle2
                  {
                    OFFSET 4.0984 0.0113983 -0.0242
                    CHANNELS 3 Zrotation Xrotation Yrotation
                    JOINT LeftHandMiddle3
                    {
                      OFFSET 2.2716 0.00689697 -0.0138001
                      CHANNELS 3 Zrotation Xrotation Yrotation
                      End Site
                      {
                        OFFSET 2.0404 -0.1441 0.0027
                      }
                    }
                  }
                }
                JOINT LeftHandRing1
                {
                  OFFSET 8.5234 0.597198 -2.0164
                  CHANNELS 3 Zrotation Xrotation Yrotation
                  JOINT LeftHandRing2
                  {
                    OFFSET 3.7188 -0.188293 -0.2328
                    CHANNELS 3 Zrotation Xrotation Yrotation
                    JOINT LeftHandRing3
                    {
                      OFFSET 2.1191 -0.106598 -0.1332
                      CHANNELS 3 Zrotation Xrotation Yrotation
                      End Site
                      {
                        OFFSET 1.8737 -0.2304 -0.0886
                      }
                    }
                  }
                }
                JOINT LeftHandPinky1
                {
                  OFFSET 7.9094 -0.601089 -3.4825
                  CHANNELS 3 Zrotation Xrotation Yrotation
                  JOINT LeftHandPinky2
                  {
                    OFFSET 2.2874 -0.477005 -0.6314
                    CHANNELS 3 Zrotation Xrotation Yrotation
                    JOINT LeftHandPinky3
                    {
                      OFFSET 1.6774 -0.349396 -0.4633
                      CHANNELS 3 Zrotation Xrotation Yrotation
                      End Site
                      {
                        OFFSET 1.4888 -0.4091 -0.3416
                      }
                    }
                  }
                }
                JOINT LeftHandThumb1
                {
                  OFFSET 1.833 -1.3875 1.3896
                  CHANNELS 3 Zrotation Xrotation Yrotation
                  JOINT LeftHandThumb2
                  {
                    OFFSET 3.4129 -1.121 2.5732
                    CHANNELS 3 Zrotation Xrotation Yrotation
                    JOINT LeftHandThumb3
                    {
                      OFFSET 2.2474 -0.804199 1.6192
                      CHANNELS 3 Zrotation Xrotation Yrotation
                      End Site
                      {
                        OFFSET 1.6527 -0.5689 1.1317
                      }
                    }
                  }
                }
              }
            }
          }
        }
        JOINT RightShoulder
        {
          OFFSET -2.2086 21.1115 7.2329
          CHANNELS 3 Zrotation Xrotation Yrotation
          JOINT RightArm
          {
            OFFSET -13.1216 3.0287 -4.9007
            CHANNELS 3 Zrotation Xrotation Yrotation
            JOINT RightForeArm
            {
              OFFSET -27.4081 -0.0973053 -0.2375
              CHANNELS 3 Zrotation Xrotation Yrotation
              JOINT RightHand
              {
                OFFSET -22.8641 0.0664063 -0.1369
                CHANNELS 3 Zrotation Xrotation Yrotation
                JOINT RightHandIndex1
                {
                  OFFSET -8.8614 0.774994 2.4612
                  CHANNELS 3 Zrotation Xrotation Yrotation
                  JOINT RightHandIndex2
                  {
                    OFFSET -3.3146 -0.808304 0.5841
                    CHANNELS 3 Zrotation Xrotation Yrotation
                    JOINT RightHandIndex3
                    {
                      OFFSET -2.2628 -0.552002 0.3989
                      CHANNELS 3 Zrotation Xrotation Yrotation
                      End Site
                      {
                        OFFSET -1.6102 -0.4807 0.2612
                      }
                    }
                  }
                }
                JOINT RightHandMiddle1
                {
                  OFFSET -8.9937 0.894989 0.2143
                  CHANNELS 3 Zrotation Xrotation Yrotation
                  JOINT RightHandMiddle2
                  {
                    OFFSET -4.0984 0.0113983 -0.0242
                    CHANNELS 3 Zrotation Xrotation Yrotation
                    JOINT RightHandMiddle3
                    {
                      OFFSET -2.2716 0.00691223 -0.0138001
                      CHANNELS 3 Zrotation Xrotation Yrotation
                      End Site
                      {
                        OFFSET -2.0404 -0.1441 0.0027
                      }
                    }
                  }
                }
                JOINT RightHandRing1
                {
                  OFFSET -8.5234 0.597198 -2.0164
                  CHANNELS 3 Zrotation Xrotation Yrotation
                  JOINT RightHandRing2
                  {
                    OFFSET -3.7188 -0.188309 -0.2328
                    CHANNELS 3 Zrotation Xrotation Yrotation
                    JOINT RightHandRing3
                    {
                      OFFSET -2.1191 -0.106598 -0.1332
                      CHANNELS 3 Zrotation Xrotation Yrotation
                      End Site
                      {
                        OFFSET -1.8737 -0.2304 -0.0886
                      }
                    }
                  }
                }
                JOINT RightHandPinky1
                {
                  OFFSET -7.9094 -0.601105 -3.4825
                  CHANNELS 3 Zrotation Xrotation Yrotation
                  JOINT RightHandPinky2
                  {
                    OFFSET -2.2874 -0.477005 -0.6314
                    CHANNELS 3 Zrotation Xrotation Yrotation
                    JOINT RightHandPinky3
                    {
                      OFFSET -1.6774 -0.349396 -0.4633
                      CHANNELS 3 Zrotation Xrotation Yrotation
                      End Site
                      {
                        OFFSET -1.4888 -0.4091 -0.3416
                      }
                    }
                  }
                }
                JOINT RightHandThumb1
                {
                  OFFSET -1.833 -1.38751 1.3896
                  CHANNELS 3 Zrotation Xrotation Yrotation
                  JOINT RightHandThumb2
                  {
                    OFFSET -3.41299 -1.12099 2.5732
                    CHANNELS 3 Zrotation Xrotation Yrotation
                    JOINT RightHandThumb3
                    {
                      OFFSET -2.24741 -0.804108 1.6192
                      CHANNELS 3 Zrotation Xrotation Yrotation
                      End Site
                      {
                        OFFSET -1.6527 -0.5689 1.1317
                      }
                    }
                  }
                }
              }
            }
          }
        }
      }
    }
  }
  JOINT RightUpLeg
  {
    OFFSET -9.1966 3.8861 -0.7581
    CHANNELS 3 Zrotation Xrotation Yrotation
    JOINT RightLeg
    {
      OFFSET -0.7359 -41.0265 0
      CHANNELS 3 Zrotation Xrotation Yrotation
      JOINT RightFoot
      {
        OFFSET 0 -40.2855 0
        CHANNELS 3 Zrotation Xrotation Yrotation
        JOINT RightToeBase
        {
          OFFSET 0 -5.6122 11.7359
          CHANNELS 3 Zrotation Xrotation Yrotation
          End Site
          {
            OFFSET 0 0 7.8731
          }
        }
      }
    }
  }
  JOINT LeftUpLeg
  {
    OFFSET 9.1965 3.8864 -0.7581
    CHANNELS 3 Zrotation Xrotation Yrotation
    JOINT LeftLeg
    {
      OFFSET 0.7359 -41.0268 0
      CHANNELS 3 Zrotation Xrotation Yrotation
      JOINT LeftFoot
      {
        OFFSET 0 -40.2855 0
        CHANNELS 3 Zrotation Xrotation Yrotation
        JOINT LeftToeBase
        {
          OFFSET 0 -5.6122 11.7359
          CHANNELS 3 Zrotation Xrotation Yrotation
          End Site
          {
            OFFSET 0 0 7.8731
          }
        }
      }
    }
  }
}
MOTION
Frames:	4
Frame Time:	0.0333333
5.84602e-005 68.8428 3.50346 0 0 -0 0 0 -0 0 0 -0 0 0 -0 0 0 -0 0 0 -0 0 0 -0 0 0 -0 0 0 -0 0 0 -0 0 0 -0 0 0 -0 0 0 -0 0 0 -0 -0.0146107 -8.87603e-005 -2.63497e-007 2.99804e-018 -2.42657e-020 -1.42182e-022 0 0 -0 -0.0187562 -0.001176 5.858e-005 5.06224e-018 3.88251e-019 1.21329e-020 0 0 -0 -0.012269 -0.00324817 0.000675346 -1.74678e-018 3.88251e-019 -0 0 0 -0 0 0 -0 0 0 -0 0 0 -0 0 0 -0 0 0 -0 0 0 -0 0 0 -0 0 0 -0 0 0 -0 0 0 -0 0.0149955 -9.10982e-005 2.64101e-007 -9.69331e-018 1.21329e-020 -4.7394e-023 0 0 -0 0.0189956 -0.00119102 -5.96516e-005 -5.41541e-019 0 2.42657e-020 0 0 -0 0.0122698 -0.00324857 -0.000673756 -2.00796e-019 0 -1.94126e-019 0 0 -0 0 0 -0 0 0 -0 3.39842 1.33031 -0.0637918 -5.65207e-008 0.834868 -0.000436188 -3.39935 -2.16518 -0.0642563 -8.89002e-024 -1.18485e-023 -1.48106e-024 -3.39844 1.35642 0.0640283 -3.18788e-007 0.782166 -0.000588827 3.39931 -2.13858 0.0634662 1.1399e-023 0 -0 
0.000410615 11.679 -4.16284 0 63.2548 -0 -0.282953 3.39867 -0.0495054 -0.564453 6.79754 -0.0823803 -0.564453 6.79755 -0.0823799 -0.0220875 -21.3747 -0.0132936 -0.0695337 -19.9096 -0.0281739 -7.132 -0.173268 4.17101e-006 -69.2706 -10.2656 -56.6246 46.569 -13.8397 -102.765 -6.23873 6.41638 6.89011e-007 -1.98626e-031 2.38542e-015 4.77083e-015 3.18055e-015 3.57812e-015 3.18055e-015 1.59028e-015 3.18055e-015 -0 -1.98626e-031 2.38542e-015 4.77083e-015 -0.0146307 -9.1308e-005 1.42586e-006 -3.18055e-015 -3.97569e-015 -1.59028e-015 -1.98626e-031 2.38542e-015 4.77083e-015 -0.0187284 -0.00117387 6.7536e-005 1.59028e-015 5.56597e-015 3.18055e-015 -1.98626e-031 2.38542e-015 4.77083e-015 -0.0122916 -0.0032521 0.00067606 1.59028e-015 5.96354e-015 -4.77083e-015 -1.98626e-031 2.38542e-015 4.77083e-015 3.18055e-015 3.57812e-015 3.18055e-015 1.59028e-015 3.18055e-015 -0 7.12888 -0.173485 -5.89193e-006 69.2668 -10.2704 56.6216 -46.5722 -13.8301 102.746 6.23541 6.41618 -8.98024e-006 3.58597e-007 -1.99923e-007 3.20992e-006 -3.25831e-007 -2.60184e-007 8.89992e-008 -1.01026e-006 -3.20445e-007 -3.03193e-006 3.58597e-007 -1.99923e-007 3.20992e-006 0.0150079 -9.24782e-005 6.36305e-006 -3.25834e-007 -2.60172e-007 8.90336e-008 3.58597e-007 -1.99923e-007 3.20992e-006 0.0190048 -0.00119083 -5.14777e-005 -3.25834e-007 -2.60169e-007 8.90458e-008 3.58597e-007 -1.99923e-007 3.20992e-006 0.0123088 -0.00325958 -0.000672602 -3.2583e-007 -2.60176e-007 8.90366e-008 3.58597e-007 -1.99923e-007 3.20992e-006 -3.25831e-007 -2.60184e-007 8.89992e-008 -1.01026e-006 -3.20445e-007 -3.03193e-006 -87.4002 -36.9104 -77.9054 176.078 59.1157 179.182 -7.08035 11.3073 -2.67646 -2.57962e-006 -4.03763e-006 1.74769e-006 87.367 -36.9736 77.8635 -175.98 59.1435 -179.238 7.08982 10.8154 2.67028 -3.64758e-007 -1.90962e-006 -1.58806e-006 
0.000610892 3.17269 -5.20317 0 73.8228 -0 -0.337907 3.89982 -0.0461771 -0.67501 7.79989 -0.0694801 -0.67501 7.79985 -0.0694805 0.250707 -25.1116 0.148562 0.126781 -23.1956 0.0506889 -8.29905 -0.201657 2.95084e-006 -82.2599 -9.02458 -65.834 49.9853 -29.5689 -112.515 -7.2596 7.46633 -6.99483e-007 1.08449e-006 -8.77168e-007 1.23856e-007 1.1926e-006 3.3082e-008 -1.84369e-007 1.1926e-006 3.3082e-008 -1.84369e-007 1.08449e-006 -8.77168e-007 1.23856e-007 -0.0146156 -8.94443e-005 -2.91636e-006 1.1926e-006 3.31055e-008 -1.84366e-007 1.08449e-006 -8.77168e-007 1.23856e-007 -0.0187587 -0.00117707 6.08049e-005 1.1926e-006 3.31117e-008 -1.84376e-007 1.08449e-006 -8.77168e-007 1.23856e-007 -0.0122258 -0.00323739 0.000677632 1.1926e-006 3.30953e-008 -1.84399e-007 1.08449e-006 -8.77168e-007 1.23856e-007 1.1926e-006 3.3082e-008 -1.84369e-007 1.1926e-006 3.3082e-008 -1.84369e-007 8.29542 -0.201903 -3.15701e-006 82.256 -9.02938 65.8306 -49.995 -29.5609 112.484 7.25576 7.4661 -2.44353e-006 6.23485e-007 -4.22766e-007 -6.50109e-007 1.69452e-006 -9.04546e-007 2.84118e-007 1.19266e-006 -6.73237e-008 -1.74987e-007 6.23485e-007 -4.22766e-007 -6.50109e-007 0.0150116 -9.18087e-005 1.81953e-006 1.19267e-006 -6.73467e-008 -1.74979e-007 6.23485e-007 -4.22766e-007 -6.50109e-007 0.0189838 -0.00119029 -5.75269e-005 1.19267e-006 -6.73522e-008 -1.74988e-007 6.23485e-007 -4.22766e-007 -6.50109e-007 0.0122642 -0.00324373 -0.000673718 1.19266e-006 -6.73358e-008 -1.75013e-007 6.23485e-007 -4.22766e-007 -6.50109e-007 1.69452e-006 -9.04546e-007 2.84118e-007 1.19266e-006 -6.73237e-008 -1.74987e-007 -106.53 -31.4342 -91.6287 176.962 40.389 176.487 -6.92973 13.557 -4.22841 -6.17339e-006 4.95076e-006 2.44889e-006 106.503 -31.5165 91.598 -176.872 40.424 -176.536 6.95411 12.9867 4.21385 2.55686e-006 -4.79586e-006 6.27728e-007 
0.000550654 5.34235 -4.9846 0 71.4645 -0 -0.323554 3.69018 -0.0488169 -0.645967 7.38057 -0.0769405 -0.645967 7.38055 -0.0769405 0.59326 -24.5207 0.35348 0.388649 -22.4028 0.155994 -8.00265 -0.194493 -3.77665e-006 -78.963 -9.43869 -63.5196 49.406 -25.3943 -110.188 -7.00033 7.19967 8.28118e-007 6.22406e-007 -5.65894e-007 -1.10383e-007 2.1445e-006 8.42566e-007 -8.34091e-007 -1.59028e-015 2.73329e-015 -0 6.22406e-007 -5.65894e-007 -1.10383e-007 -0.0146112 -8.78732e-005 7.61229e-006 -5.56597e-015 -4.72114e-015 -1.11319e-014 6.22406e-007 -5.65894e-007 -1.10383e-007 -0.0187528 -0.00117507 5.38972e-005 -5.56597e-015 -7.85199e-015 -1.43125e-014 6.22406e-007 -5.65894e-007 -1.10383e-007 -0.01227 -0.00325054 0.00068118 -6.62086e-032 -2.38542e-015 -1.59028e-015 6.22406e-007 -5.65894e-007 -1.10383e-007 2.1445e-006 8.42566e-007 -8.34091e-007 -1.59028e-015 2.73329e-015 -0 7.99916 -0.194725 2.34419e-006 78.9592 -9.4435 63.5163 -49.4135 -25.3858 110.161 6.99662 7.19945 2.47759e-006 -9.84275e-007 -1.37563e-006 -5.56607e-007 6.38298e-007 5.4999e-007 -1.07519e-007 -1.2766e-006 -1.09998e-006 2.15037e-007 -9.84275e-007 -1.37563e-006 -5.56607e-007 0.0150026 -8.76944e-005 -6.44992e-006 -1.62389e-006 -1.92567e-006 -4.48834e-007 -9.84275e-007 -1.37563e-006 -5.56607e-007 0.0189878 -0.00118967 -6.23772e-005 -1.62424e-006 -1.92559e-006 -4.48747e-007 -9.84275e-007 -1.37563e-006 -5.56607e-007 0.0122931 -0.00325341 -0.000676101 -1.2766e-006 -1.09996e-006 2.15192e-007 -9.84275e-007 -1.37563e-006 -5.56607e-007 6.38298e-007 5.4999e-007 -1.07519e-007 -1.2766e-006 -1.09998e-006 2.15037e-007 -102.345 -32.9261 -88.7188 176.794 45.1238 177.253 -6.77577 13.1081 -3.8126 -6.27262e-007 -8.05308e-007 -1.30892e-006 102.318 -33.0021 88.687 -176.703 45.156 -177.302 6.79523 12.57 3.79978 6.33842e-007 -8.03303e-007 1.30592e-006 
